#!OML:ASF H:\Terrain\Patient Classification 1\Walking\liu\liu.ASF
:FULLY-SPECIFIED
:DEGREES
80
root 9.30421 16.4007 -25.6577 4.23885 -8.12939 2.28199
lowerback -4.89737 -0.98588 -3.71166
upperback -1.6151 -1.17795 2.60099
thorax 1.21046 -0.588223 4.70608
lowerneck -22.067 -4.01792 -11.5738
upperneck 19.139 -4.61309 11.8624
head 10.3226 -1.59702 5.49477
rclavicle -4.73356e-015 -2.38542e-014
rhumerus -43.819 13.7655 -89.1808
rradius 40.1193
rwrist -22.1222
rhand -30.786 -22.9514
rfingers 7.12502
rthumb -4.07653 -52.8921
lclavicle -4.73356e-015 -2.38542e-014
lhumerus -28.4757 -11.7279 87.4952
lradius 25.1592
lwrist 0.231911
lhand -2.86671 -16.397
lfingers 7.12502
lthumb 22.8419 12.2704
rfemur -20.6665 -0.0440895 17.9459
rtibia 62.9596
rfoot -14.832 -12.3029
rtoes -10.6399
lfemur -16.9752 3.1197 -26.9047
ltibia 27.5837
lfoot -14.9611 9.45336
ltoes 1.27045
81
root 9.31007 16.3957 -25.5457 4.31647 -7.99718 2.34871
lowerback -5.11087 -1.0495 -3.85034
upperback -1.57014 -1.25026 2.63018
thorax 1.38736 -0.629676 4.80774
lowerneck -22.1503 -3.98994 -11.7187
upperneck 19.2576 -4.57 12.0422
head 10.3834 -1.56541 5.59926
rclavicle 1.76546e-014 7.15625e-015
rhumerus -43.7285 13.9667 -89.107
rradius 39.9999
rwrist -22.1318
rhand -30.6628 -22.6642
rfingers 7.12502
rthumb -3.9575 -52.6072
lclavicle 1.76546e-014 7.15625e-015
lhumerus -27.802 -12.1266 87.4087
lradius 25.7416
lwrist 1.08947
lhand -12.9232 -23.9751
lfingers 7.12502
lthumb 13.1672 5.58908
rfemur -21.7996 0.477548 18.0593
rtibia 62.4649
rfoot -15.7965 -12.3331
rtoes -9.95646
lfemur -16.593 2.93309 -27.0296
ltibia 27.5542
lfoot -15.7175 9.37339
ltoes 0.855284
82
root 9.31664 16.3923 -25.4345 4.2664 -7.74479 2.39087
lowerback -5.13439 -1.13951 -3.83401
upperback -1.51495 -1.36968 2.59403
thorax 1.4697 -0.692476 4.75176
lowerneck -22.2321 -3.94177 -11.6676
upperneck 19.3785 -4.5256 12.0615
head 10.4351 -1.53681 5.61002
rclavicle -1.65364e-014 3.10104e-014
rhumerus -43.7673 14.0161 -89.1181
rradius 40.0907
rwrist -22.0167
rhand -30.631 -22.5415
rfingers 7.12502
rthumb -3.9268 -52.485
lclavicle -1.65364e-014 3.10104e-014
lhumerus -27.2411 -12.5753 87.2277
lradius 26.2781
lwrist 1.59952
lhand -11.1125 -23.2429
lfingers 7.12502
lthumb 14.9121 6.20038
rfemur -22.8098 0.885291 18.1745
rtibia 61.9478
rfoot -16.5342 -12.4245
rtoes -11.279
lfemur -16.0539 2.83638 -27.1292
ltibia 27.479
lfoot -15.8584 9.20317
ltoes -0.122085
83
root 9.32359 16.3847 -25.3211 4.10147 -7.46086 2.50374
lowerback -5.02824 -1.211 -3.90958
upperback -1.50296 -1.46382 2.56402
thorax 1.43427 -0.739042 4.75856
lowerneck -22.3555 -3.98132 -11.6757
upperneck 19.7455 -4.56661 11.9463
head 10.5931 -1.56725 5.5762
rclavicle -2.00524e-014 3.18055e-015
rhumerus -43.8526 13.7666 -89.0045
rradius 40.0196
rwrist -21.7294
rhand -30.69 -23.203
rfingers 7.12502
rthumb -3.98376 -53.1455
lclavicle -2.00524e-014 3.18055e-015
lhumerus -26.802 -13.014 87.1404
lradius 26.8783
lwrist 1.9389
lhand -10.0739 -22.9826
lfingers 7.12502
lthumb 15.9125 6.3837
rfemur -23.6641 1.14515 18.1767
rtibia 61.3726
rfoot -17.074 -12.5931
rtoes -10.8607
lfemur -15.3819 2.69433 -27.3161
ltibia 27.3581
lfoot -15.4155 9.28101
ltoes -0.941018
84
root 9.33351 16.3684 -25.2056 3.80439 -7.26884 2.72115
lowerback -4.90189 -1.23296 -4.06402
upperback -1.39211 -1.4884 2.51824
thorax 1.4834 -0.755035 4.79798
lowerneck -22.4898 -4.05512 -11.8265
upperneck 19.9708 -4.59689 11.8504
head 10.705 -1.60122 5.57037
rclavicle 2.85504e-014 -4.77083e-015
rhumerus -43.8484 13.6451 -88.8119
rradius 39.9047
rwrist -21.7357
rhand -30.858 -23.9952
rfingers 7.12502
rthumb -4.14604 -53.9346
lclavicle 2.85504e-014 -4.77083e-015
lhumerus -26.2845 -13.6231 87.1629
lradius 27.5859
lwrist 2.53601
lhand -9.98592 -23.119
lfingers 7.12502
lthumb 15.9972 6.2405
rfemur -24.2983 1.344 18.0412
rtibia 60.7022
rfoot -17.6367 -12.8536
rtoes -9.16883
lfemur -14.5344 2.49812 -27.631
ltibia 27.2434
lfoot -15.4415 9.48677
ltoes -2.28445
85
root 9.34185 16.3555 -25.0904 3.76477 -7.07516 2.90322
lowerback -5.1024 -1.17897 -4.12802
upperback -1.1321 -1.40317 2.40285
thorax 1.85304 -0.726898 4.71409
lowerneck -22.9087 -4.25176 -11.8803
upperneck 19.9369 -4.79835 11.8303
head 10.8001 -1.68749 5.54042
rclavicle -1.86982e-014 -5.56597e-015
rhumerus -43.4737 13.4457 -88.6201
rradius 39.8671
rwrist -21.9118
rhand -31.0127 -24.0807
rfingers 7.12502
rthumb -4.29536 -54.0172
lclavicle -1.86982e-014 -5.56597e-015
lhumerus -25.3521 -14.428 87.0421
lradius 28.2328
lwrist 3.2048
lhand -10.161 -23.2719
lfingers 7.12502
lthumb 15.8286 6.10104
rfemur -25.1862 1.51882 17.9179
rtibia 59.9367
rfoot -18.0752 -12.9112
rtoes -11.6259
lfemur -13.9785 2.35489 -27.9044
ltibia 27.1369
lfoot -16.0104 9.46108
ltoes -3.5053
86
root 9.35001 16.343 -24.9731 3.87878 -6.623 2.9481
lowerback -5.37041 -1.23434 -4.08127
upperback -1.00685 -1.46892 2.36207
thorax 2.13768 -0.768892 4.63477
lowerneck -22.9524 -4.43687 -12.0281
upperneck 19.7942 -5.02307 11.9574
head 10.7961 -1.78474 5.57217
rclavicle 9.18059e-015 7.95139e-015
rhumerus -43.2431 13.2201 -88.4457
rradius 39.8534
rwrist -21.8802
rhand -30.6354 -24.3792
rfingers 7.12502
rthumb -3.9311 -54.3227
lclavicle 9.18059e-015 7.95139e-015
lhumerus -24.5375 -14.9966 86.9464
lradius 28.6828
lwrist 3.76394
lhand -10.2994 -23.3968
lfingers 7.12502
lthumb 15.6953 5.98664
rfemur -26.1588 1.56719 17.9183
rtibia 59.0917
rfoot -18.3681 -12.7399
rtoes -7.12583
lfemur -13.5793 2.19118 -28.0139
ltibia 26.9939
lfoot -16.5387 9.13702
ltoes -2.3352
87
root 9.35989 16.3323 -24.8523 3.71863 -6.20073 3.01802
lowerback -5.28554 -1.31249 -4.10375
upperback -1.05954 -1.57621 2.41816
thorax 2.04984 -0.819642 4.6999
lowerneck -22.5167 -4.49576 -12.3542
upperneck 19.7936 -5.05422 11.9979
head 10.7295 -1.83274 5.63617
rclavicle 3.08116e-015 1.59028e-014
rhumerus -43.559 13.1639 -88.2273
rradius 39.8871
rwrist -21.8022
rhand -29.8828 -25.1206
rfingers 7.12502
rthumb -3.20425 -55.0763
lclavicle 3.08116e-015 1.59028e-014
lhumerus -24.2415 -15.5983 87.2042
lradius 29.0688
lwrist 4.23746
lhand -11.039 -23.7533
lfingers 7.12502
lthumb 14.983 5.68463
rfemur -26.7948 1.67833 17.8653
rtibia 58.1747
rfoot -18.9645 -12.8209
rtoes -7.23331
lfemur -12.8421 2.07141 -28.147
ltibia 26.8473
lfoot -16.997 8.89108
ltoes 0.0788269
88
root 9.36685 16.3296 -24.7287 3.60787 -6.03548 3.14337
lowerback -5.41333 -1.19602 -4.10304
upperback -0.962921 -1.41384 2.32548
thorax 2.20059 -0.743719 4.61214
lowerneck -22.4781 -4.69325 -12.4312
upperneck 19.8284 -5.28037 11.8687
head 10.7656 -1.95846 5.56382
rclavicle -1.06536e-015 1.11319e-014
rhumerus -43.5897 12.7314 -88.0144
rradius 39.7375
rwrist -21.8224
rhand -29.7808 -25.4761
rfingers 7.12502
rthumb -3.1058 -55.4333
lclavicle -1.06536e-015 1.11319e-014
lhumerus -23.7106 -16.6518 87.3028
lradius 29.6919
lwrist 4.91927
lhand -11.4716 -23.9784
lfingers 7.12502
lthumb 14.5661 5.49018
rfemur -27.5048 2.01735 17.7007
rtibia 57.195
rfoot -19.6526 -12.9108
rtoes -10.3728
lfemur -12.1393 2.12622 -28.3448
ltibia 26.6833
lfoot -17.3844 8.84801
ltoes -0.389243
89
root 9.37185 16.3289 -24.6079 3.79351 -5.74175 3.02499
lowerback -5.80035 -1.16565 -3.87204
upperback -0.938948 -1.37246 2.2664
thorax 2.43054 -0.726779 4.41664
lowerneck -22.3487 -4.84693 -12.4012
upperneck 19.8407 -5.50711 11.7988
head 10.7753 -2.07166 5.49445
rclavicle -2.51587e-016 1.35174e-014
rhumerus -43.6106 12.3861 -88.0217
rradius 39.5562
rwrist -21.5412
rhand -30.2482 -25.3602
rfingers 7.12502
rthumb -3.55716 -55.3102
lclavicle -2.51587e-016 1.35174e-014
lhumerus -23.186 -17.3423 87.148
lradius 30.3539
lwrist 5.67846
lhand -11.3241 -24.1778
lfingers 7.12502
lthumb 14.7083 5.2804
rfemur -28.4382 2.35332 17.7941
rtibia 56.1345
rfoot -20.2358 -12.7762
rtoes -12.2973
lfemur -11.7558 2.20082 -28.2567
ltibia 26.4153
lfoot -17.5854 8.60321
ltoes -1.91082
90
root 9.37613 16.3249 -24.4907 3.86153 -5.3316 2.90928
lowerback -5.86252 -1.35535 -3.83898
upperback -1.11163 -1.63005 2.42569
thorax 2.31772 -0.849889 4.54332
lowerneck -21.9123 -4.77696 -12.6863
upperneck 20.0536 -5.39346 11.8404
head 10.7651 -2.05163 5.58465
rclavicle -1.44492e-014 1.90833e-014
rhumerus -44.0629 12.6775 -88.0328
rradius 39.5275
rwrist -21.271
rhand -30.3494 -24.8226
rfingers 7.12502
rthumb -3.65484 -54.771
lclavicle -1.44492e-014 1.90833e-014
lhumerus -23.1494 -17.3012 87.2309
lradius 30.8962
lwrist 6.11699
lhand -11.5541 -24.2804
lfingers 7.12502
lthumb 14.4867 5.19387
rfemur -29.2044 2.56284 17.8934
rtibia 55.0001
rfoot -20.7569 -12.568
rtoes -13.9925
lfemur -11.2209 2.21151 -28.1445
ltibia 26.0624
lfoot -17.8884 8.23672
ltoes -1.88312
91
root 9.37991 16.3177 -24.3717 3.69876 -4.96778 2.98491
lowerback -5.75951 -1.56009 -3.98123
upperback -1.15076 -1.89885 2.47036
thorax 2.25474 -0.983182 4.65089
lowerneck -21.6143 -4.7099 -12.7059
upperneck 20.1641 -5.31885 11.7616
head 10.7366 -2.0379 5.57337
rclavicle -1.05977e-014 8.74653e-015
rhumerus -44.2485 12.8234 -87.9688
rradius 39.301
rwrist -21.5644
rhand -29.8732 -22.8725
rfingers 7.12502
rthumb -3.19497 -52.8284
lclavicle -1.05977e-014 8.74653e-015
lhumerus -23.116 -17.492 87.236
lradius 31.5634
lwrist 6.49272
lhand -12.2007 -24.1989
lfingers 7.12502
lthumb 13.8636 5.31906
rfemur -29.7486 2.68741 17.7638
rtibia 53.8149
rfoot -20.7949 -12.523
rtoes -16.4099
lfemur -10.3686 2.09982 -28.2426
ltibia 25.6809
lfoot -18.3562 8.0086
ltoes -1.48657
92
root 9.38559 16.3094 -24.2481 3.53135 -4.61424 3.02165
lowerback -6.04956 -1.60809 -4.0036
upperback -0.882317 -1.94999 2.41859
thorax 2.69961 -1.02456 4.59556
lowerneck -21.3948 -4.78621 -12.4765
upperneck 19.8821 -5.45678 11.5629
head 10.5992 -2.11061 5.42532
rclavicle -1.31571e-014 2.14687e-014
rhumerus -43.9121 12.6097 -87.7716
rradius 38.9547
rwrist -21.9008
rhand -29.8388 -21.0462
rfingers 7.12502
rthumb -3.16181 -51.0025
lclavicle -1.31571e-014 2.14687e-014
lhumerus -22.6077 -18.1515 87.1369
lradius 32.3007
lwrist 6.89835
lhand -12.6542 -24.3492
lfingers 7.12502
lthumb 13.4265 5.19812
rfemur -30.2378 2.75596 17.6895
rtibia 52.5948
rfoot -20.3048 -12.6319
rtoes -19.3533
lfemur -9.39977 1.8873 -28.3211
ltibia 25.1536
lfoot -18.5257 7.984
ltoes -0.98255
